<svg xmlns="http://www.w3.org/2000/svg" viewBox="0 0 50 50"><defs><style>.cls-1{fill:#567bf5;}.cls-2{fill:#fff;}</style></defs><title>audio-question</title><g id="Layer_2" data-name="Layer 2"><g id="Layer_1-2" data-name="Layer 1"><circle class="cls-1" cx="25" cy="25" r="25"/><path class="cls-2" d="M42.75,36.28A9.94,9.94,0,0,1,39,42.07a6.15,6.15,0,0,1-.52.37,6.87,6.87,0,0,1-.74.44h0c-.2.1-.39.2-.6.29l-.26.12-.36.14-.31.11-.53.16c-.25.07-.51.13-.77.18l-.23,0A1.52,1.52,0,0,1,33,42.43V25.71a1.51,1.51,0,0,1,1.79-1.48,10,10,0,0,1,6.77,4.68A17,17,0,0,0,42,23.7,17,17,0,0,0,8,25.07a16.74,16.74,0,0,0,.44,3.84,10,10,0,0,1,6.77-4.68A1.51,1.51,0,0,1,17,25.71V42.43a1.52,1.52,0,0,1-1.65,1.5l-.23,0c-.26,0-.52-.11-.77-.18l-.53-.16-.31-.11c-.21-.08-.42-.16-.62-.26s-.41-.19-.61-.3a6.87,6.87,0,0,1-.74-.44,6.15,6.15,0,0,1-.52-.37,9.94,9.94,0,0,1-3.77-5.79A21,21,0,0,1,26.08,4.1,21.12,21.12,0,0,1,46,23.78,20.87,20.87,0,0,1,42.75,36.28Z"/></g></g></svg>