<svg xmlns="http://www.w3.org/2000/svg" viewBox="0 0 704.87 92.48"><defs><style>.cls-1{fill:#333;}</style></defs><title>bilingualism_1</title><g id="Layer_2" data-name="Layer 2"><g id="Layer_8" data-name="Layer 8"><path class="cls-1" d="M35.09,40.56A20.41,20.41,0,1,0,0,26.38V85.59a6.89,6.89,0,0,0,13.78,0v-4A23.13,23.13,0,0,0,21,82.7,23.44,23.44,0,0,0,35.09,40.56ZM13.78,52.94A9.49,9.49,0,0,1,21,49.69a9.57,9.57,0,0,1,0,19.14,9.48,9.48,0,0,1-7.18-3.24Zm6.63-19.59a7,7,0,0,1-6.63-4.84V24.25a7,7,0,1,1,6.63,9.1Z"/><path class="cls-1" d="M57.56,71V14.62c0-2.93.66-5.12,2-6.59a6.68,6.68,0,0,1,5.17-2.19A6.91,6.91,0,0,1,70,8q2,2.18,2,6.61V71c0,3-.68,5.18-2,6.64a6.86,6.86,0,0,1-5.3,2.2,6.67,6.67,0,0,1-5.15-2.22Q57.55,75.42,57.56,71Z"/><path class="cls-1" d="M102.48,14.62v52.1h29.39a7.76,7.76,0,0,1,5.4,1.71,5.57,5.57,0,0,1,1.88,4.3A5.41,5.41,0,0,1,137.29,77a8,8,0,0,1-5.42,1.64h-35q-4.74,0-6.81-2.1T88,69.75V14.62c0-2.93.66-5.12,2-6.59a6.69,6.69,0,0,1,5.2-2.19A6.91,6.91,0,0,1,100.45,8Q102.48,10.19,102.48,14.62Z"/><path class="cls-1" d="M149.26,71V14.62c0-2.93.66-5.12,2-6.59a6.68,6.68,0,0,1,5.17-2.19A6.91,6.91,0,0,1,161.73,8q2,2.18,2,6.61V71c0,3-.68,5.18-2,6.64a6.86,6.86,0,0,1-5.3,2.2,6.67,6.67,0,0,1-5.15-2.22Q149.26,75.42,149.26,71Z"/><path class="cls-1" d="M198.86,14.53l27.89,42.18V14.14q0-4.16,1.78-6.23a6,6,0,0,1,4.81-2.07,6.22,6.22,0,0,1,4.93,2.07c1.2,1.38,1.81,3.46,1.81,6.23V70.43q0,9.43-7.82,9.43a10.42,10.42,0,0,1-3.51-.56,9.08,9.08,0,0,1-2.93-1.78,17.68,17.68,0,0,1-2.54-2.86c-.78-1.09-1.56-2.21-2.35-3.35l-27.19-41.7v42q0,4.09-1.91,6.2a6.28,6.28,0,0,1-4.88,2.1A6.22,6.22,0,0,1,182,77.73q-1.86-2.12-1.86-6.17V16.33a15.61,15.61,0,0,1,.78-5.51A7.85,7.85,0,0,1,184,7.23a8.35,8.35,0,0,1,4.64-1.39,7.61,7.61,0,0,1,5.79,2.34A17.6,17.6,0,0,1,196.59,11C197.33,12.1,198.08,13.29,198.86,14.53Z"/><path class="cls-1" d="M321.33,49.54V63.26a14.36,14.36,0,0,1-.54,4.37,7,7,0,0,1-2,3,18.37,18.37,0,0,1-3.69,2.54,58.37,58.37,0,0,1-12.5,5.13,50.5,50.5,0,0,1-13.08,1.61,42.68,42.68,0,0,1-15-2.54A31.57,31.57,0,0,1,262.93,70a32.64,32.64,0,0,1-7.35-11.72A43.8,43.8,0,0,1,253,42.85a45,45,0,0,1,2.49-15.29,31.36,31.36,0,0,1,7.32-11.76A32,32,0,0,1,274.6,8.4a45.07,45.07,0,0,1,15.72-2.56,39.14,39.14,0,0,1,12.79,1.92,28.44,28.44,0,0,1,9,4.86,21.73,21.73,0,0,1,5.22,6.2,12.63,12.63,0,0,1,1.76,5.81,6.22,6.22,0,0,1-2,4.67,6.82,6.82,0,0,1-4.86,1.93,6.52,6.52,0,0,1-3-.74,6.73,6.73,0,0,1-2.42-2,56.8,56.8,0,0,0-4.54-6.34,14.51,14.51,0,0,0-5-3.62,19.21,19.21,0,0,0-8-1.46,22.28,22.28,0,0,0-9,1.73,18.53,18.53,0,0,0-6.76,5,22.69,22.69,0,0,0-4.3,8.08,35.63,35.63,0,0,0-1.49,10.6q0,12.59,5.79,19.38t16.14,6.79a32.78,32.78,0,0,0,9.44-1.32,47.45,47.45,0,0,0,9-3.76V51.93H296.81a12.31,12.31,0,0,1-6.12-1.22,4.42,4.42,0,0,1-2.08-4.15,5.11,5.11,0,0,1,1.73-4A6.8,6.8,0,0,1,295.06,41h16.45a20.9,20.9,0,0,1,5.13.54A5.76,5.76,0,0,1,320,44,9.79,9.79,0,0,1,321.33,49.54Z"/><path class="cls-1" d="M335.24,49.05V14.62c0-2.93.66-5.12,2-6.59a6.67,6.67,0,0,1,5.2-2.19A6.85,6.85,0,0,1,347.77,8c1.31,1.47,2,3.66,2,6.59V49.83a31.92,31.92,0,0,0,1.35,10,11.53,11.53,0,0,0,4.76,6.25q3.42,2.23,9.57,2.23,8.49,0,12-4.52t3.51-13.7V14.62c0-3,.66-5.16,2-6.61a6.66,6.66,0,0,1,5.22-2.17A6.91,6.91,0,0,1,393.42,8q2,2.18,2,6.61V49.05a50.88,50.88,0,0,1-1.64,14,21.64,21.64,0,0,1-6.18,9.87,24.11,24.11,0,0,1-9.08,5.27,39.66,39.66,0,0,1-12.11,1.66,50.23,50.23,0,0,1-14.21-1.78,22.71,22.71,0,0,1-9.71-5.52A22.19,22.19,0,0,1,337,63,48.75,48.75,0,0,1,335.24,49.05Z"/><path class="cls-1" d="M451.94,70.53l-3.42-9h-29.1L416,70.73A32.11,32.11,0,0,1,412.59,78c-.95,1.25-2.49,1.88-4.64,1.88a6.82,6.82,0,0,1-4.84-2,6.14,6.14,0,0,1-2.1-4.54,10.3,10.3,0,0,1,.49-3c.33-1,.86-2.49,1.61-4.35l18.31-46.48,1.88-4.81A24.56,24.56,0,0,1,425.65,10a9.56,9.56,0,0,1,3.27-3,10.07,10.07,0,0,1,5-1.14A10.21,10.21,0,0,1,439,7a9.73,9.73,0,0,1,3.27,3,20.7,20.7,0,0,1,2.1,3.88q.86,2.07,2.17,5.54l18.7,46.19c1.47,3.52,2.2,6.07,2.2,7.67a6.31,6.31,0,0,1-2.08,4.56,6.79,6.79,0,0,1-5,2.08,6.44,6.44,0,0,1-2.93-.61,6,6,0,0,1-2.05-1.66,15,15,0,0,1-1.78-3.22C452.94,72.92,452.4,71.64,451.94,70.53ZM423.23,50.66h21.39L433.83,21.12Z"/><path class="cls-1" d="M492.27,14.62v52.1h29.4a7.73,7.73,0,0,1,5.39,1.71,5.54,5.54,0,0,1,1.88,4.3A5.43,5.43,0,0,1,527.09,77a8,8,0,0,1-5.42,1.64h-35q-4.74,0-6.81-2.1t-2.08-6.79V14.62c0-2.93.66-5.12,2-6.59A6.67,6.67,0,0,1,485,5.84,6.91,6.91,0,0,1,490.25,8Q492.28,10.19,492.27,14.62Z"/><path class="cls-1" d="M539.05,71V14.62c0-2.93.67-5.12,2-6.59a6.7,6.7,0,0,1,5.18-2.19A6.92,6.92,0,0,1,551.53,8q2,2.18,2,6.61V71c0,3-.67,5.18-2,6.64a6.87,6.87,0,0,1-5.3,2.2,6.65,6.65,0,0,1-5.15-2.22C539.72,76.16,539.05,74,539.05,71Z"/><path class="cls-1" d="M624.16,57.15a21,21,0,0,1-3.35,11.67A22.2,22.2,0,0,1,611,76.93a36.7,36.7,0,0,1-15.28,2.93q-10.61,0-17.48-4a23.27,23.27,0,0,1-7.94-7.69,17.47,17.47,0,0,1-3.05-9.35,6.34,6.34,0,0,1,6.5-6.39,5.54,5.54,0,0,1,3.88,1.46,11.56,11.56,0,0,1,2.71,4.35,28.78,28.78,0,0,0,2.95,5.71,12,12,0,0,0,4.47,3.78,16.41,16.41,0,0,0,7.57,1.49q6.45,0,10.47-3a9,9,0,0,0,4-7.49,7.92,7.92,0,0,0-2.17-5.79,14,14,0,0,0-5.62-3.39q-3.43-1.17-9.2-2.49a68,68,0,0,1-12.92-4.23,21,21,0,0,1-8.25-6.59,17.13,17.13,0,0,1-3.05-10.38,17.8,17.8,0,0,1,3.22-10.49,20.38,20.38,0,0,1,9.33-7.06,38.25,38.25,0,0,1,14.35-2.46A35.58,35.58,0,0,1,607,7.47a24.12,24.12,0,0,1,8,4.35,18.17,18.17,0,0,1,4.64,5.69A13.17,13.17,0,0,1,621,23.32,6.87,6.87,0,0,1,619.2,28a5.84,5.84,0,0,1-4.56,2.07,5.26,5.26,0,0,1-3.79-1.24A16.86,16.86,0,0,1,608,24.73a18.45,18.45,0,0,0-4.68-6.32c-1.83-1.52-4.76-2.27-8.79-2.27a15.23,15.23,0,0,0-9.06,2.46c-2.3,1.65-3.44,3.63-3.44,5.94a6,6,0,0,0,1.17,3.71,9.84,9.84,0,0,0,3.22,2.68,21.52,21.52,0,0,0,4.15,1.76q2.1.63,6.94,1.86a108,108,0,0,1,11,3.12,33.37,33.37,0,0,1,8.35,4.15A17.19,17.19,0,0,1,622.23,48,19.84,19.84,0,0,1,624.16,57.15Z"/><path class="cls-1" d="M660.63,67.85,649.16,22.24V71.66q0,4.09-1.83,6.15a6.73,6.73,0,0,1-9.65,0q-1.84-2-1.85-6.17V15q0-4.69,2.44-6.33a11.69,11.69,0,0,1,6.59-1.63h4.49a17.15,17.15,0,0,1,5.89.73A5,5,0,0,1,658,10.43a41.2,41.2,0,0,1,2,6.2l10.4,39.21,10.4-39.21a40.06,40.06,0,0,1,2-6.2,5,5,0,0,1,2.71-2.64,17.08,17.08,0,0,1,5.88-.73h4.5a11.71,11.71,0,0,1,6.59,1.63q2.45,1.63,2.44,6.33V71.66q0,4.09-1.83,6.15a6.25,6.25,0,0,1-4.91,2,6.07,6.07,0,0,1-4.73-2q-1.86-2.06-1.86-6.15V22.24L680.07,67.85q-1.12,4.44-1.84,6.52a9,9,0,0,1-2.61,3.78,7.61,7.61,0,0,1-5.27,1.71,8,8,0,0,1-4.3-1.1A7.89,7.89,0,0,1,663.32,76a15.93,15.93,0,0,1-1.54-3.78C661.4,70.79,661,69.34,660.63,67.85Z"/><text/></g></g></svg>