<svg xmlns="http://www.w3.org/2000/svg" viewBox="0 0 21.77 23.34"><defs><style>.cls-1{fill:#dd1d1d;stroke:#bd8989;stroke-miterlimit:10;stroke-width:2px;}</style></defs><title>down-arrow_1</title><g id="Layer_2" data-name="Layer 2"><g id="Layer_1-2" data-name="Layer 1"><g id="Capa_1" data-name="Capa 1"><path class="cls-1" d="M10.18,22a.93.93,0,0,0,1.33.06l.07-.06,8.87-8.88a1,1,0,0,0,.07-1.34.23.23,0,0,0-.07-.07,1,1,0,0,0-1.41,0l-7.17,7.18v-17A1,1,0,0,0,10.77,1a1,1,0,0,0-.9.91v17L2.7,11.74a1,1,0,0,0-1.41,1.41Z"/></g></g></g></svg>