<svg xmlns="http://www.w3.org/2000/svg" viewBox="0 0 50 50"><defs><style>.cls-1{fill:#567bf5;}.cls-2{fill:#fff;}</style></defs><title>image-question</title><g id="Layer_2" data-name="Layer 2"><g id="Layer_1-2" data-name="Layer 1"><circle class="cls-1" cx="25" cy="25" r="25"/><path class="cls-2" d="M38,8H12a4,4,0,0,0-4,4V38a4,4,0,0,0,4,4H38a4,4,0,0,0,4-4V12A4,4,0,0,0,38,8Zm1,18.17-5.78-5.09a1.48,1.48,0,0,0-2.18.24l-6.37,8.76a1.07,1.07,0,0,1-1.55.19l-4.18-3.49a1.49,1.49,0,0,0-1.89,0L11,31.66V13.05A2.05,2.05,0,0,1,13.05,11H37a2.05,2.05,0,0,1,2,2.05Z"/><circle class="cls-2" cx="21.5" cy="18.5" r="3.5"/></g></g></svg>