<svg xmlns="http://www.w3.org/2000/svg" width="22.8" height="21.302" viewBox="0 0 22.8 21.302">
  <g id="Layer_2" data-name="Layer 2" transform="translate(0.001 0.039)">
    <g id="Layer_1" data-name="Layer 1" transform="translate(-0.002 -0.039)">
      <path id="Path_102" data-name="Path 102" d="M.348-.019,22.059,9.492a1.231,1.231,0,0,1,0,2.257L.348,21.24A.246.246,0,0,1,0,21.015V13.771a.723.723,0,0,1,.575-.708l8.844-1.924a.477.477,0,0,0,0-.934L.6,8.7A.734.734,0,0,1,0,7.958V.232A.251.251,0,0,1,.348-.019Z" transform="translate(0.002 0.039)" fill="#2dd221"/>
    </g>
  </g>
</svg>
