<svg id="audio-question" xmlns="http://www.w3.org/2000/svg" width="50" height="50" viewBox="0 0 50 50">
  <g id="Layer_1" data-name="Layer 1">
    <circle id="Ellipse_13" data-name="Ellipse 13" cx="25" cy="25" r="25" fill="#29495f"/>
    <path id="Path_104" data-name="Path 104" d="M43.649,37.286a10.258,10.258,0,0,1-3.837,5.971,6.3,6.3,0,0,1-.532.382,7.019,7.019,0,0,1-.757.454h0c-.2.1-.4.206-.614.3l-.266.124-.368.144-.317.113-.542.165c-.256.072-.522.134-.788.186h-.235a1.547,1.547,0,0,1-1.181-.372,1.572,1.572,0,0,1-.538-1.123V26.386a1.562,1.562,0,0,1,.561-1.2,1.536,1.536,0,0,1,1.271-.33,10.232,10.232,0,0,1,6.927,4.826,17.663,17.663,0,0,0,.45-5.373A17.409,17.409,0,1,0,8.093,25.726a17.392,17.392,0,0,0,.45,3.96,10.232,10.232,0,0,1,6.927-4.826,1.536,1.536,0,0,1,1.271.33,1.562,1.562,0,0,1,.561,1.2V43.628a1.573,1.573,0,0,1-.509,1.145,1.548,1.548,0,0,1-1.179.4h-.235a3.021,3.021,0,0,1-.788-.186l-.542-.165-.317-.113a6.886,6.886,0,0,1-.634-.268c-.2-.1-.42-.2-.624-.309a7.018,7.018,0,0,1-.757-.454,6.3,6.3,0,0,1-.532-.382,10.257,10.257,0,0,1-3.857-5.971A21.8,21.8,0,0,1,6.919,14.8,21.447,21.447,0,0,1,26.593,4.1,21.632,21.632,0,0,1,43.649,37.286Z" transform="translate(-0.489 -0.5)" fill="#c7c7c7"/>
  </g>
</svg>
