<svg xmlns="http://www.w3.org/2000/svg" width="195.549" height="24.037" viewBox="0 0 195.549 24.037">
  <g id="bilingualism" transform="translate(-29 41.427)">
    <g id="Layer_8" data-name="Layer 8" transform="translate(29 -41.427)">
      <path id="Path_59" data-name="Path 59" d="M9.734,15.564A5.662,5.662,0,1,0,0,11.631V28.056a1.911,1.911,0,1,0,3.823,0v-1.11a6.416,6.416,0,0,0,2,.308,6.5,6.5,0,0,0,3.909-11.69ZM3.823,19a2.66,2.66,0,1,1,.011,3.509Zm1.839-5.434a1.942,1.942,0,0,1-1.839-1.343V11.04a1.942,1.942,0,1,1,1.839,2.524Z" transform="translate(0 -5.931)" fill="#c7c7c7"/>
      <path id="Path_60" data-name="Path 60" d="M57.56,23.913V8.272a2.63,2.63,0,0,1,.555-1.828,1.853,1.853,0,0,1,1.434-.608,1.917,1.917,0,0,1,1.462.6,2.636,2.636,0,0,1,.555,1.834V23.913a2.658,2.658,0,0,1-.555,1.842,1.9,1.9,0,0,1-1.47.61,1.85,1.85,0,0,1-1.429-.616A2.644,2.644,0,0,1,57.56,23.913Z" transform="translate(-41.592 -5.835)" fill="#c7c7c7"/>
      <path id="Path_61" data-name="Path 61" d="M92.017,8.272V22.725h8.153a2.153,2.153,0,0,1,1.5.474,1.545,1.545,0,0,1,.522,1.193,1.5,1.5,0,0,1-.516,1.185,2.219,2.219,0,0,1-1.5.455H90.461a2.576,2.576,0,0,1-1.889-.583A2.6,2.6,0,0,1,88,23.566V8.272a2.63,2.63,0,0,1,.555-1.828A1.856,1.856,0,0,1,90,5.837a1.917,1.917,0,0,1,1.456.6A2.621,2.621,0,0,1,92.017,8.272Z" transform="translate(-63.588 -5.835)" fill="#c7c7c7"/>
      <path id="Path_62" data-name="Path 62" d="M149.26,23.912V8.272a2.63,2.63,0,0,1,.555-1.828,1.853,1.853,0,0,1,1.434-.608,1.917,1.917,0,0,1,1.47.6,2.636,2.636,0,0,1,.555,1.834V23.912a2.658,2.658,0,0,1-.555,1.842,1.9,1.9,0,0,1-1.47.61,1.85,1.85,0,0,1-1.429-.616A2.635,2.635,0,0,1,149.26,23.912Z" transform="translate(-107.854 -5.834)" fill="#c7c7c7"/>
      <path id="Path_63" data-name="Path 63" d="M185.325,8.246l7.737,11.7V8.138a2.594,2.594,0,0,1,.494-1.728,1.664,1.664,0,0,1,1.334-.574,1.725,1.725,0,0,1,1.368.574,2.575,2.575,0,0,1,.5,1.728V23.753q0,2.616-2.169,2.616a2.891,2.891,0,0,1-.974-.155,2.519,2.519,0,0,1-.813-.494,4.9,4.9,0,0,1-.7-.793c-.216-.3-.433-.613-.652-.929L183.9,12.429V24.08a2.484,2.484,0,0,1-.53,1.72,1.863,1.863,0,0,1-2.727-.022,2.521,2.521,0,0,1-.516-1.712V8.745a4.331,4.331,0,0,1,.216-1.529,2.178,2.178,0,0,1,.854-1,2.316,2.316,0,0,1,1.287-.386,2.111,2.111,0,0,1,1.606.649,4.882,4.882,0,0,1,.6.782C184.9,7.572,185.108,7.9,185.325,8.246Z" transform="translate(-130.16 -5.833)" fill="#c7c7c7"/>
      <path id="Path_64" data-name="Path 64" d="M271.952,17.958v3.806a3.985,3.985,0,0,1-.15,1.212,1.942,1.942,0,0,1-.555.832,5.1,5.1,0,0,1-1.024.7,16.192,16.192,0,0,1-3.468,1.423,14.009,14.009,0,0,1-3.629.447,11.84,11.84,0,0,1-4.161-.7,8.758,8.758,0,0,1-3.215-2.044,9.055,9.055,0,0,1-2.039-3.251A12.151,12.151,0,0,1,253,16.1a12.483,12.483,0,0,1,.691-4.242A8.7,8.7,0,0,1,255.718,8.6a8.877,8.877,0,0,1,3.271-2.053,12.5,12.5,0,0,1,4.361-.71,10.857,10.857,0,0,1,3.548.533,7.889,7.889,0,0,1,2.5,1.348,6.027,6.027,0,0,1,1.448,1.72,3.5,3.5,0,0,1,.488,1.612,1.726,1.726,0,0,1-.555,1.3,1.892,1.892,0,0,1-1.348.535,1.809,1.809,0,0,1-.832-.205,1.867,1.867,0,0,1-.671-.555,15.758,15.758,0,0,0-1.259-1.759,4.025,4.025,0,0,0-1.387-1,5.329,5.329,0,0,0-2.219-.405,6.181,6.181,0,0,0-2.5.48,5.14,5.14,0,0,0-1.875,1.387,6.3,6.3,0,0,0-1.193,2.241A9.884,9.884,0,0,0,257.08,16a8.054,8.054,0,0,0,1.606,5.376,5.567,5.567,0,0,0,4.477,1.884,9.093,9.093,0,0,0,2.619-.366,13.163,13.163,0,0,0,2.5-1.043V18.621H265.15a3.415,3.415,0,0,1-1.7-.338,1.226,1.226,0,0,1-.577-1.151,1.417,1.417,0,0,1,.48-1.11,1.886,1.886,0,0,1,1.309-.433h4.563a5.8,5.8,0,0,1,1.423.15,1.6,1.6,0,0,1,.932.682,2.716,2.716,0,0,1,.369,1.537Z" transform="translate(-182.813 -5.834)" fill="#c7c7c7"/>
      <path id="Path_65" data-name="Path 65" d="M335.233,17.821V8.27a2.63,2.63,0,0,1,.555-1.828,1.85,1.85,0,0,1,1.443-.608,1.9,1.9,0,0,1,1.479.6,2.671,2.671,0,0,1,.555,1.828v9.776a8.854,8.854,0,0,0,.374,2.774,3.2,3.2,0,0,0,1.32,1.734,4.839,4.839,0,0,0,2.655.619,3.969,3.969,0,0,0,3.329-1.254,6.151,6.151,0,0,0,.974-3.8V8.27a2.6,2.6,0,0,1,.555-1.834,1.848,1.848,0,0,1,1.448-.6,1.917,1.917,0,0,1,1.454.6,2.636,2.636,0,0,1,.555,1.834v9.554a14.111,14.111,0,0,1-.455,3.884,6,6,0,0,1-1.714,2.738A6.689,6.689,0,0,1,347.24,25.9a11,11,0,0,1-3.359.46,13.934,13.934,0,0,1-3.942-.494,6.3,6.3,0,0,1-2.694-1.531,6.155,6.155,0,0,1-1.523-2.649A13.527,13.527,0,0,1,335.233,17.821Z" transform="translate(-242.236 -5.832)" fill="#c7c7c7"/>
      <path id="Path_66" data-name="Path 66" d="M415.138,23.795l-.949-2.5h-8.072l-.949,2.552a8.908,8.908,0,0,1-.946,2.017,1.512,1.512,0,0,1-1.287.522,1.892,1.892,0,0,1-1.343-.555,1.7,1.7,0,0,1-.583-1.259,2.857,2.857,0,0,1,.136-.832c.092-.277.239-.691.447-1.207l5.079-12.894.522-1.334a6.814,6.814,0,0,1,.652-1.3,2.652,2.652,0,0,1,.907-.832,2.794,2.794,0,0,1,1.387-.316,2.832,2.832,0,0,1,1.409.316,2.7,2.7,0,0,1,.907.832,5.744,5.744,0,0,1,.583,1.076q.239.574.6,1.537l5.188,12.813a6.414,6.414,0,0,1,.61,2.128,1.75,1.75,0,0,1-.577,1.265,1.884,1.884,0,0,1-1.387.577,1.787,1.787,0,0,1-.813-.169,1.664,1.664,0,0,1-.569-.46,4.159,4.159,0,0,1-.494-.893C415.416,24.458,415.266,24.1,415.138,23.795Zm-7.964-5.512h5.934l-2.993-8.195Z" transform="translate(-289.768 -5.847)" fill="#c7c7c7"/>
      <path id="Path_67" data-name="Path 67" d="M481.8,8.272V22.724h8.156a2.144,2.144,0,0,1,1.5.474,1.537,1.537,0,0,1,.522,1.193,1.507,1.507,0,0,1-.513,1.185,2.219,2.219,0,0,1-1.5.455h-9.709a2.575,2.575,0,0,1-1.889-.583,2.617,2.617,0,0,1-.577-1.884V8.272a2.63,2.63,0,0,1,.555-1.828,1.85,1.85,0,0,1,1.448-.608,1.917,1.917,0,0,1,1.456.6A2.611,2.611,0,0,1,481.8,8.272Z" transform="translate(-345.241 -5.834)" fill="#c7c7c7"/>
      <path id="Path_68" data-name="Path 68" d="M539.05,23.912V8.272a2.643,2.643,0,0,1,.555-1.828,1.859,1.859,0,0,1,1.437-.608,1.92,1.92,0,0,1,1.47.6,2.636,2.636,0,0,1,.555,1.834V23.912a2.645,2.645,0,0,1-.555,1.842,1.906,1.906,0,0,1-1.47.61,1.845,1.845,0,0,1-1.429-.616A2.59,2.59,0,0,1,539.05,23.912Z" transform="translate(-389.515 -5.834)" fill="#c7c7c7"/>
      <path id="Path_69" data-name="Path 69" d="M583.037,20.073a5.826,5.826,0,0,1-.929,3.237,6.158,6.158,0,0,1-2.721,2.25,10.181,10.181,0,0,1-4.239.813,9.533,9.533,0,0,1-4.849-1.11,6.454,6.454,0,0,1-2.2-2.133,4.845,4.845,0,0,1-.846-2.594,1.759,1.759,0,0,1,1.8-1.773,1.537,1.537,0,0,1,1.076.405,3.207,3.207,0,0,1,.752,1.207,7.981,7.981,0,0,0,.818,1.584,3.328,3.328,0,0,0,1.24,1.049,4.552,4.552,0,0,0,2.1.413,4.733,4.733,0,0,0,2.9-.832,2.5,2.5,0,0,0,1.11-2.078,2.2,2.2,0,0,0-.6-1.606,3.883,3.883,0,0,0-1.559-.94q-.952-.325-2.552-.691a18.866,18.866,0,0,1-3.584-1.173,5.826,5.826,0,0,1-2.289-1.828,4.752,4.752,0,0,1-.846-2.879,4.939,4.939,0,0,1,.893-2.91A5.654,5.654,0,0,1,571.1,6.525a10.611,10.611,0,0,1,3.981-.682,9.87,9.87,0,0,1,3.193.449A6.691,6.691,0,0,1,580.5,7.5a5.039,5.039,0,0,1,1.287,1.578,3.654,3.654,0,0,1,.377,1.612,1.907,1.907,0,0,1-.5,1.3,1.62,1.62,0,0,1-1.265.574,1.459,1.459,0,0,1-1.051-.344,4.675,4.675,0,0,1-.791-1.137,5.118,5.118,0,0,0-1.3-1.753,3.8,3.8,0,0,0-2.439-.63,4.225,4.225,0,0,0-2.513.682,1.991,1.991,0,0,0-.954,1.648,1.665,1.665,0,0,0,.325,1.029,2.73,2.73,0,0,0,.893.743,5.969,5.969,0,0,0,1.151.488q.583.175,1.925.516a29.952,29.952,0,0,1,3.052.866,9.257,9.257,0,0,1,2.316,1.151,4.769,4.769,0,0,1,1.49,1.714A5.5,5.5,0,0,1,583.037,20.073Z" transform="translate(-409.892 -5.837)" fill="#c7c7c7"/>
      <path id="Path_70" data-name="Path 70" d="M642.71,23.893l-3.182-12.652V24.95a2.5,2.5,0,0,1-.508,1.706,1.867,1.867,0,0,1-2.677,0,2.471,2.471,0,0,1-.513-1.712V9.232a1.974,1.974,0,0,1,.677-1.756,3.243,3.243,0,0,1,1.828-.452h1.246a4.758,4.758,0,0,1,1.634.2,1.387,1.387,0,0,1,.766.738,11.433,11.433,0,0,1,.555,1.72l2.885,10.877L648.3,9.684a11.12,11.12,0,0,1,.555-1.72,1.387,1.387,0,0,1,.752-.732,4.738,4.738,0,0,1,1.631-.2h1.248a3.249,3.249,0,0,1,1.828.452A1.96,1.96,0,0,1,655,9.238V24.95a2.5,2.5,0,0,1-.508,1.706,1.734,1.734,0,0,1-1.362.555,1.684,1.684,0,0,1-1.312-.555,2.473,2.473,0,0,1-.516-1.706V11.241l-3.2,12.652q-.311,1.232-.51,1.809a2.5,2.5,0,0,1-.724,1.049,2.111,2.111,0,0,1-1.462.474,2.219,2.219,0,0,1-1.193-.305,2.188,2.188,0,0,1-.757-.766,4.42,4.42,0,0,1-.427-1.049C642.923,24.709,642.812,24.307,642.71,23.893Z" transform="translate(-459.447 -6.689)" fill="#c7c7c7"/>
    </g>
  </g>
</svg>
