<svg xmlns="http://www.w3.org/2000/svg" width="28" height="28" viewBox="0 0 28 28">
  <g id="new" transform="translate(1.5 1.5)">
    <g id="Layer_1" data-name="Layer 1" transform="translate(0 0)">
      <path id="Path_2" data-name="Path 2" d="M37.05,37.148a.1.1,0,1,0,.2,0h0a.1.1,0,0,0-.2,0Z" transform="translate(-24.648 -24.648)" fill="none" stroke="#aaa" stroke-miterlimit="10" stroke-width="3"/>
      <path id="Path_3" data-name="Path 3" d="M1.5,37.148a.1.1,0,0,0,.1.1H18.761a.1.1,0,1,0,0-.2H1.6A.1.1,0,0,0,1.5,37.148Z" transform="translate(-1.5 -24.648)" fill="none" stroke="#aaa" stroke-miterlimit="10" stroke-width="3"/>
      <path id="Path_4" data-name="Path 4" d="M37.05,18.761a.1.1,0,0,0,.2,0V1.6a.1.1,0,1,0-.2,0Z" transform="translate(-24.648 -1.5)" fill="none" stroke="#aaa" stroke-miterlimit="10" stroke-width="3"/>
      <path id="Path_5" data-name="Path 5" d="M37.05,54.711a.1.1,0,0,0,.2,0V37.548a.1.1,0,0,0-.2,0Z" transform="translate(-24.648 -29.809)" fill="none" stroke="#aaa" stroke-miterlimit="10" stroke-width="3"/>
      <path id="Path_6" data-name="Path 6" d="M37.45,37.148a.1.1,0,0,0,.1.1H54.711a.1.1,0,1,0,0-.2H37.548A.1.1,0,0,0,37.45,37.148Z" transform="translate(-29.809 -24.648)" fill="none" stroke="#aaa" stroke-miterlimit="10" stroke-width="3"/>
      <path id="Path_7" data-name="Path 7" d="M37.05,37.148a.1.1,0,1,0,.2,0h0a.1.1,0,0,0-.2,0Z" transform="translate(-24.648 -24.648)" fill="none" stroke="#aaa" stroke-miterlimit="10" stroke-width="3"/>
    </g>
  </g>
</svg>
