<svg xmlns="http://www.w3.org/2000/svg" width="22" height="26.999" viewBox="0 0 22 26.999">
  <g id="profile" transform="translate(0 1)">
    <g id="Layer_1" data-name="Layer 1" transform="translate(0.5 0)">
      <ellipse id="Ellipse_1" data-name="Ellipse 1" cx="6" cy="6" rx="6" ry="6" transform="translate(4.5)" fill="none" stroke="#aaa" stroke-linecap="round" stroke-linejoin="round" stroke-miterlimit="10" stroke-width="2"/>
      <path id="Path_17" data-name="Path 17" d="M16.158,57.243a7.52,7.52,0,0,1,1.06.872,17.061,17.061,0,0,1,2.838,4.833A27.965,27.965,0,0,1,21.112,67.1c.036.266.066.537.088.807H1.2A28.929,28.929,0,0,1,2.756,61.8h0a16.815,16.815,0,0,1,2.491-3.855,7.2,7.2,0,0,1,.9-.724" transform="translate(-0.7 -42.91)" fill="none" stroke="#aaa" stroke-linecap="round" stroke-linejoin="round" stroke-miterlimit="10" stroke-width="2"/>
    </g>
  </g>
</svg>
