<svg xmlns="http://www.w3.org/2000/svg" width="54.98" height="55.11" viewBox="0 0 54.98 55.11">
  <g id="Layer_2" data-name="Layer 2" transform="translate(0 0)">
    <g id="Layer_1" data-name="Layer 1">
      <path id="Path_106" data-name="Path 106" d="M51.72,21.5h-5.2a1.62,1.62,0,0,1-1.24-.5,2,2,0,0,1,0-2.77l3.57-3.57a2.8,2.8,0,0,0,0-3.94l-5-5a2.18,2.18,0,0,0-3.08,0l-4.1,4.13a1.52,1.52,0,0,1-1.13.46,2,2,0,0,1-2-2V2.68A2.19,2.19,0,0,0,31.32.5H23.68A2.19,2.19,0,0,0,21.5,2.68V8.3a2,2,0,0,1-.78,1.6,1.93,1.93,0,0,1-2.53-.2L14.62,6.13a2.8,2.8,0,0,0-3.94,0L6.13,10.68a2.8,2.8,0,0,0,0,3.94l3.56,3.56a1.89,1.89,0,0,1,.57,1.68A1.93,1.93,0,0,1,8.33,21.5H3.28A2.77,2.77,0,0,0,.5,24.28v6.44A2.79,2.79,0,0,0,3.28,33.5h5.2a1.62,1.62,0,0,1,1.24.5,2,2,0,0,1,0,2.77L6.13,40.38a2.8,2.8,0,0,0-.81,2,2.76,2.76,0,0,0,.81,2l5,5a2.18,2.18,0,0,0,3.08,0l4.14-4.14a1.52,1.52,0,0,1,1.13-.46,2,2,0,0,1,2,2v5.65a2.19,2.19,0,0,0,2.18,2.18H31.3a2.19,2.19,0,0,0,2.18-2.18V46.77a2,2,0,0,1,1-1.78,1.9,1.9,0,0,1,2.36.31l3.57,3.57a2.79,2.79,0,0,0,3.93,0l4.56-4.56a2.76,2.76,0,0,0,.81-2,2.8,2.8,0,0,0-.81-2l-3.56-3.55a1.94,1.94,0,0,1,1.36-3.33h5a2.77,2.77,0,0,0,2.78-2.78V24.28A2.77,2.77,0,0,0,51.72,21.5Zm.78,9.22a.78.78,0,0,1-.78.78h-4.9a4,4,0,0,0-3.55,1.94,3.91,3.91,0,0,0,.61,4.79l3.57,3.57a.77.77,0,0,1,0,1.1L42.9,47.45a.77.77,0,0,1-1.1,0L38.33,44a4,4,0,0,0-3.88-1.14,3.9,3.9,0,0,0-3,3.82v5a.78.78,0,0,1-.78.78H24.28a.78.78,0,0,1-.78-.78V46.84a4,4,0,0,0-4-4.12,3.91,3.91,0,0,0-2.76,1.16L13.2,47.45a.77.77,0,0,1-1.1,0L7.55,42.9a.77.77,0,0,1,0-1.1L11,38.33a4,4,0,0,0,1.14-3.88,3.9,3.9,0,0,0-3.82-3H3.28a.78.78,0,0,1-.78-.78V24.28a.78.78,0,0,1,.78-.78h4.9a4,4,0,0,0,3.55-1.94,3.91,3.91,0,0,0-.61-4.79L7.55,13.2a.77.77,0,0,1,0-1.1L12.1,7.55a.77.77,0,0,1,1.1,0L16.67,11a4.07,4.07,0,0,0,3.87,1.14,3.9,3.9,0,0,0,3-3.82V3.28a.78.78,0,0,1,.78-.78h6.44a.78.78,0,0,1,.78.78v4.9a4.05,4.05,0,0,0,2,3.55,3.91,3.91,0,0,0,4.78-.61L41.8,7.54a.78.78,0,0,1,1.1,0l4.55,4.56a.77.77,0,0,1,0,1.1L44,16.67a4,4,0,0,0-1.14,3.88,3.9,3.9,0,0,0,3.82,2.95h5a.78.78,0,0,1,.78.78Z" fill="#c7c7c7" stroke="#c7c7c7" stroke-miterlimit="10" stroke-width="1"/>
      <path id="Path_107" data-name="Path 107" d="M27,18a9,9,0,1,0,9,9A9,9,0,0,0,27,18Zm0,16a7,7,0,1,1,7-7A7,7,0,0,1,27,34Z" fill="#c7c7c7" stroke="#c7c7c7" stroke-miterlimit="10" stroke-width="1"/>
    </g>
  </g>
</svg>
