<svg xmlns="http://www.w3.org/2000/svg" viewBox="0 0 514.08 512.54"><defs><style>.cls-1{fill:#f0f0f0;}.cls-2{fill:#0052b4;}.cls-3{fill:#d80027;}.cls-4{fill:#d0f8fe;}</style></defs><title>English</title><g id="Layer_2" data-name="Layer 2"><g id="Layer_1-2" data-name="Layer 1"><path class="cls-1" d="M513.6,255.77a257.89,257.89,0,0,1-2.17,33.44A254.8,254.8,0,0,1,454,420q-7.15,8.55-15,16.46a256.45,256.45,0,0,1-114.23,66.43,252.82,252.82,0,0,1-34,6.77,258.52,258.52,0,0,1-67-.1,253.21,253.21,0,0,1-33-6.59q-9.24-2.49-18.21-5.66-4.42-1.56-8.78-3.27l-2.91-1.17q-2.9-1.19-5.75-2.43h0a257.4,257.4,0,0,1-78.82-54l362-362,.52.52a255.22,255.22,0,0,1,72.62,147.28A258.09,258.09,0,0,1,513.6,255.77Z"/><path class="cls-2" d="M504.78,189.21a255.13,255.13,0,0,0-44.1-89.08l-89.07,89.08Z"/><path class="cls-2" d="M101.67,458.84A255.1,255.1,0,0,0,190.74,503V369.77Z"/><path class="cls-2" d="M324.74,503a255.22,255.22,0,0,0,89.08-44.1l-89.08-89.08V503Z"/><path class="cls-2" d="M371.61,322.21l89.07,89.08a255.13,255.13,0,0,0,44.1-89.08Z"/><path class="cls-3" d="M514.08,255.71a260.72,260.72,0,0,1-2.17,33.5H290.74V510.37a259.67,259.67,0,0,1-67,0V289.21h-.26L290.74,222v.26H511.91A260.84,260.84,0,0,1,514.08,255.71Z"/><path class="cls-3" d="M324.74,322.21h0L439,436.45c5.25-5.25,10.27-10.75,15-16.44l-97.8-97.8Z"/><path class="cls-3" d="M190.74,322.21h0L76.51,436.45q7.88,7.88,16.43,15l97.8-97.8V322.21Z"/><path class="cls-1" d="M437.33,75.13l-42.08,42.08L75.3,437.16A255.1,255.1,0,0,1,.18,256c0-1.6,0-3.2.05-4.8a254.54,254.54,0,0,1,24.9-105.57c1.05-2.19,2.12-4.36,3.23-6.51A255.91,255.91,0,0,1,251.48.06c1.56,0,3.13,0,4.7,0A255.64,255.64,0,0,1,437.33,75.13Z"/><polygon class="cls-3" points="328.25 184.21 261.25 251.21 240.48 251.21 240.48 184.21 328.25 184.21"/><path class="cls-3" d="M435,74.52l-.65.65,0,0-8.92,8.92-33.16,33.16H237.48v-67h171A257.68,257.68,0,0,1,435,74.48Z"/><path class="cls-3" d="M199.25,317.21l-67,67h-96a255.52,255.52,0,0,1-28.85-67Z"/><path class="cls-2" d="M118.28,40.21h23.46L119.92,56.07l8.33,25.65L106.43,65.86,84.61,81.72,87,74.41l4.83-14.85a258.75,258.75,0,0,0-49.94,55.65h8.74L36.72,125.3q-3.26,5.42-6.23,11l2.87,8.83,3.76,11.59-7-5.08-5.39-3.91q-4.6,9.78-8.42,20l3.16,9.73,4.15,12.77H50.18L28.44,206l8.3,25.56L15,215.77l-6.47,4.7L2,225.23a259.66,259.66,0,0,0-2,32H256.48V0A256.27,256.27,0,0,0,118.28,40.21Zm10.65,191.27-21.7-15.76-21.7,15.76L93.82,206l-21.7-15.76H98.94l8.29-25.51,8.29,25.51h26.82L120.64,206ZM120.64,131l8.29,25.51-21.7-15.76-21.7,15.76L93.82,131l-21.7-15.76H98.94l8.29-25.51,8.29,25.51h26.82ZM220.75,231.48l-21.7-15.76-21.7,15.76L185.64,206l-21.7-15.76h26.83l8.28-25.51,8.29,25.51h26.82L212.46,206ZM212.46,131l8.29,25.51-21.7-15.76-21.7,15.76L185.64,131l-21.7-15.76h26.83l8.28-25.51,8.29,25.51h26.82Zm0-74,8.29,25.5-21.7-15.76-21.7,15.76L185.64,57l-21.7-15.76h26.83l8.28-25.51,8.29,25.51h26.82Z"/><rect class="cls-4" x="-7.06" y="240.14" width="530.48" height="29.74" transform="translate(-104.7 257.25) rotate(-45)"/></g></g></svg>