<svg xmlns="http://www.w3.org/2000/svg" viewBox="0 0 295.99 296"><defs><style>.cls-1{fill:#6da544;}.cls-2{fill:#ffda44;}.cls-3{fill:#f0f0f0;}.cls-4{fill:#0052b4;}.cls-5{fill:#d80027;}.cls-6{fill:#d0f8fe;}</style></defs><title>Portugese</title><g id="Layer_2" data-name="Layer 2"><g id="Layer_1-2" data-name="Layer 1"><path class="cls-1" d="M296,147A149,149,0,0,1,41.4,252.12l68.71-68.71c.15.16.31.31.47.46-.16-.15-.31-.31-.46-.47l142-142A148.53,148.53,0,0,1,296,147Z"/><path class="cls-2" d="M270.08,147,147,237.7,94.5,199l15.61-15.61c.15.16.31.31.47.46-.16-.15-.31-.31-.46-.47l88.82-88.82Z"/><path class="cls-3" d="M198.82,147c0,1.28,0,2.54-.14,3.79,0,.41-.07.83-.11,1.24s-.07.71-.11,1.06-.12.94-.19,1.41-.12.81-.19,1.22-.14.81-.22,1.21h0a51.45,51.45,0,0,1-8.42,19.81s0,0,0,0c-.39.56-.79,1.11-1.21,1.65,0,.08-.12.16-.18.24-.45.59-.91,1.16-1.39,1.72s-1,1.16-1.51,1.72-1.05,1.11-1.59,1.65l-.62.6a6.14,6.14,0,0,1-.45.43c-.39.38-.8.74-1.21,1.11a51.82,51.82,0,0,1-4.74,3.73q-1.8,1.26-3.72,2.36l-.16.09-1.35.74c-.45.24-.91.47-1.37.7s-.92.45-1.39.66l-1.36.61-.06,0c-.47.2-.95.39-1.44.58l-1.45.54-1.48.49c-.36.12-.72.23-1.09.33l-.75.22-1.18.31c-.39.11-.79.2-1.19.29l-.62.14-1.28.25q-.78.15-1.56.27t-1.47.21c-.26,0-.53.07-.79.09s-.71.08-1.07.11-.77.07-1.15.09l-.68.05c-1,.05-1.93.08-2.91.08a52,52,0,0,1-10.36-1c-.42-.08-.83-.17-1.25-.27s-.83-.19-1.24-.3-.82-.21-1.22-.33c-.87-.24-1.71-.5-2.55-.78-1.15-.39-2.29-.82-3.4-1.29-.39-.16-.77-.33-1.14-.5l-1-.47c-.79-.38-1.57-.77-2.33-1.18l-1.08-.6c-.73-.41-1.44-.84-2.13-1.28l-1-.68-1-.7-1-.72-1-.75c-.33-.25-.65-.51-1-.77l-.83-.69-.34-.29c-.55-.48-1.09-1-1.61-1.46l-.89-.86c-.16-.15-.31-.31-.46-.47l73.28-73.28A51.65,51.65,0,0,1,198.82,147Z"/><path class="cls-4" d="M189.43,176.73s0,0,0,0c-.39.56-.79,1.11-1.21,1.65,0,.08-.12.16-.18.24-.45.59-.91,1.16-1.39,1.72s-1,1.16-1.51,1.72-1.05,1.11-1.59,1.65l-.62.6a6.14,6.14,0,0,1-.45.43c-.39.38-.8.74-1.21,1.11a51.82,51.82,0,0,1-4.74,3.73c-1.2.83-2.45,1.62-3.72,2.36l-.16.09-1.35.74c-.45.24-.91.47-1.37.7s-.92.45-1.39.66l-1.36.61-.06,0c-.47.2-.95.39-1.44.58l-1.45.54-1.48.49c-.36.12-.72.23-1.09.33l-.75.22-1.18.31c-.39.11-.79.2-1.19.29l-.62.14-1.28.25q-.78.15-1.56.27t-1.47.21c-.26,0-.53.07-.79.09s-.71.08-1.07.11-.77.07-1.15.09l-.68.05c-1,.05-1.93.08-2.91.08a52,52,0,0,1-10.36-1c-.42-.08-.83-.17-1.25-.27s-.83-.19-1.24-.3-.82-.21-1.22-.33c-.87-.24-1.71-.5-2.55-.78-1.15-.4-2.28-.82-3.4-1.29-.39-.16-.77-.33-1.14-.5l-1-.47c-.79-.38-1.57-.77-2.33-1.18l-1.08-.6c-.73-.41-1.44-.84-2.13-1.28l-1-.68-1-.7-1-.72-1-.75c-.33-.25-.65-.51-1-.77l-.83-.69-.34-.29c-.55-.48-1.09-1-1.61-1.46l-.89-.86c-.16-.15-.31-.31-.46-.47l36-36A87.72,87.72,0,0,1,189.43,176.73Z"/><path class="cls-4" d="M198.82,147c0,1.28,0,2.54-.14,3.79,0,.41-.07.83-.11,1.24s-.07.71-.11,1.06-.12.94-.19,1.41-.12.81-.19,1.22-.14.81-.22,1.21a107.27,107.27,0,0,0-36.54-24.73l22.08-22.08A51.65,51.65,0,0,1,198.82,147Z"/><path class="cls-1" d="M110.13,149,107,182.57l-.35,3.73L41.16,251.81A149,149,0,0,1,97,9.33l.17-.06,8.21,88.55,2.32,25Z"/><path class="cls-5" d="M252.19,40.78,148.78,144.19l-28.52,28.52a29.21,29.21,0,0,1-5.85,5.85L97,196V9.27C123.17-.44,152.81-3,183.56,3.93A146.15,146.15,0,0,1,252.19,40.78Z"/><path class="cls-2" d="M148.78,144.19l-28.52,28.52a29.21,29.21,0,0,1-5.85,5.85l-22,22.05A51.83,51.83,0,0,1,97,97.17h.17a51.8,51.8,0,0,1,51.61,47Z"/><path class="cls-5" d="M126.1,122.81V155.2a29.22,29.22,0,0,1-11.69,23.36,28.41,28.41,0,0,1-7.39,4,28.91,28.91,0,0,1-9.43,1.78H97c-16.11,0-29.1-13.45-29.1-29.64V122.81Z"/><path class="cls-3" d="M87.69,155.35V142.6h19.2v13a9.6,9.6,0,1,1-19.2-.21Z"/><rect class="cls-6" x="-4.49" y="138.55" width="303.21" height="17" transform="translate(-60.89 147.09) rotate(-45)"/></g></g></svg>