<svg xmlns="http://www.w3.org/2000/svg" viewBox="0 0 512.7 512.63"><defs><style>.cls-1{fill:#f0f0f0;}.cls-2{fill:#d80027;}.cls-3{fill:#6da544;}.cls-4{fill:#ff9811;}.cls-5{fill:#ffda44;}.cls-6{fill:#d0f8fe;}</style></defs><title>Spanish</title><g id="Layer_2" data-name="Layer 2"><g id="Layer_1-2" data-name="Layer 1"><path class="cls-1" d="M437.63,75.22l-362,362A256.05,256.05,0,0,1,367.7,25.41c1,.49,2,1,3,1.49l1.46.73c1.16.59,2.32,1.19,3.47,1.8,1,.5,1.92,1,2.87,1.54l2.14,1.18c.4.21.8.44,1.2.67.65.36,1.29.73,1.93,1.1q3,1.74,6,3.59c.64.38,1.27.77,1.9,1.17.88.54,1.74,1.09,2.61,1.65l1.92,1.24c.39.25.77.5,1.16.77l2,1.36a.46.46,0,0,1,.1.07c1.68,1.13,3.34,2.29,5,3.46.84.59,1.67,1.19,2.5,1.8s1.66,1.21,2.48,1.83,1.86,1.39,2.79,2.11l1.51,1.18c1.81,1.4,3.6,2.83,5.37,4.31.7.57,1.39,1.15,2.08,1.74a4,4,0,0,1,.47.4c.72.6,1.43,1.21,2.14,1.82q2.33,2,4.6,4.08l2.26,2.08c1.27,1.19,2.54,2.39,3.79,3.61.31.27.61.57.92.89l1.92,1.9A1.36,1.36,0,0,1,437.63,75.22Z"/><path class="cls-2" d="M437.63,75.22,367.7,145.15V25.41c1,.49,2,1,3,1.49l1.46.73c1.16.59,2.32,1.19,3.47,1.8,1,.5,1.92,1,2.87,1.54l2.14,1.18c.4.21.8.44,1.2.67.65.36,1.29.73,1.93,1.1q3,1.74,6,3.59c.64.38,1.27.77,1.9,1.17.88.54,1.74,1.09,2.61,1.65l1.92,1.24c.39.25.77.5,1.16.77l2,1.36a.46.46,0,0,1,.1.07c1.68,1.12,3.34,2.28,5,3.46.84.59,1.67,1.19,2.5,1.8s1.66,1.21,2.48,1.83,1.86,1.39,2.79,2.11l1.51,1.18c1.81,1.4,3.6,2.83,5.37,4.31.7.57,1.39,1.15,2.08,1.74a4,4,0,0,1,.47.4c.72.6,1.43,1.21,2.14,1.82q2.33,2,4.6,4.08l2.26,2.08c1.27,1.19,2.54,2.39,3.79,3.61.31.27.61.57.92.89l1.92,1.9A1.36,1.36,0,0,1,437.63,75.22Z"/><path class="cls-3" d="M144.7,25.41V368.15L75.59,437.26l-.17.18A255.16,255.16,0,0,1,0,256C0,154.51,59.07,66.81,144.7,25.41Z"/><path class="cls-3" d="M279.18,233.67l-69.67,69.67a66.49,66.49,0,0,1-19.81-47.41V233.67Z"/><path class="cls-4" d="M278.37,211.67h22.81l-67,67h-.31a22.5,22.5,0,0,1-22.5-22.5,22.51,22.51,0,0,1-22.5-22.5h2.23c-12.15,0-22.73-9.85-22.73-22h66a22,22,0,1,1,44,0Z"/><path class="cls-5" d="M512.7,256.56a255.44,255.44,0,0,1-15.92,89l-.75.07L256.7,367.86l-102.19-9.48,12.71-12.71,191-191,138.5,12.84h.06A255.39,255.39,0,0,1,512.7,256.56Z"/><path class="cls-2" d="M496.78,167.67H345.22L437.29,75.6l-7.42-7.42a256.34,256.34,0,0,1,66.85,99.33Z"/><path class="cls-2" d="M496.78,345.67c-36.17,97.48-130,167-240.08,167A255.17,255.17,0,0,1,75.47,437.42l79-79,12.71-12.71Z"/><rect class="cls-6" x="-9.84" y="241.6" width="530.48" height="29.74" transform="translate(-106.55 255.71) rotate(-45)"/></g></g></svg>