<svg xmlns="http://www.w3.org/2000/svg" viewBox="0 0 921.46 86.45"><defs><style>.cls-1,.cls-2,.cls-3{fill:#5d5d5d;}.cls-1,.cls-2{stroke:#5d5d5d;stroke-miterlimit:10;fill-rule:evenodd;}.cls-1{stroke-width:3px;}.cls-2{stroke-width:2px;}</style></defs><title>motto5c</title><g id="Layer_2" data-name="Layer 2"><g id="Layer_8" data-name="Layer 8"><path class="cls-1" d="M653,38.81A40.69,40.69,0,0,0,630.92,2.52l-.14-.07-.14-.08s0,0,0,0a5,5,0,0,0-2.2-.51,5.16,5.16,0,0,0-2.22,9.78h0a29.92,29.92,0,0,1,.6,52.65h-9.1V7.1a.71.71,0,0,0,0-.14,5.39,5.39,0,1,0-10.77,0c0,.11,0,.23,0,.34v57h-8.08a29.93,29.93,0,0,1,.66-52.69h0l.22.45-.22-.46a5.16,5.16,0,0,0-2.25-9.76h0a5.06,5.06,0,0,0-2.16.48l-.09.05-.23-.46.23.46-.11,0-.06,0a40.9,40.9,0,0,0,0,72.73h34.46a4.86,4.86,0,0,1,2.55,4.19.13.13,0,0,0,0,.06v0a.19.19,0,0,0,0,.08,5.4,5.4,0,1,0,10.8-.08h0v-.06A14.82,14.82,0,0,0,639,69.61,40.76,40.76,0,0,0,653,38.81Z"/><path class="cls-2" d="M32.21,34.77A18.91,18.91,0,1,0,1,20.41V79.62a5.39,5.39,0,1,0,10.77,0V73.45A21.94,21.94,0,0,0,32.21,34.77ZM11.77,18.06a8.47,8.47,0,1,1,0,4.7Zm8.68,46.31a11,11,0,0,1-8.68-4.21V46.43a11.07,11.07,0,1,1,8.68,17.94Z"/><path class="cls-3" d="M52.92,66.37V10.16q0-4.38,2-6.57a6.67,6.67,0,0,1,5.16-2.2,6.91,6.91,0,0,1,5.28,2.17q2,2.16,2,6.6V66.37q0,4.42-2,6.62a6.86,6.86,0,0,1-5.28,2.19A6.61,6.61,0,0,1,54.94,73Q52.92,70.76,52.92,66.37Z"/><path class="cls-3" d="M92.69,10.16V62.09H122a7.7,7.7,0,0,1,5.38,1.7,5.54,5.54,0,0,1,1.87,4.28,5.4,5.4,0,0,1-1.85,4.26A7.91,7.91,0,0,1,122,74H87.1c-3.15,0-5.42-.7-6.79-2.09s-2.07-3.65-2.07-6.77V10.16c0-2.92.65-5.11,2-6.57a6.64,6.64,0,0,1,5.18-2.2,6.88,6.88,0,0,1,5.28,2.17Q92.7,5.72,92.69,10.16Z"/><path class="cls-3" d="M138.32,66.37V10.16q0-4.38,2-6.57a6.67,6.67,0,0,1,5.16-2.2,6.88,6.88,0,0,1,5.28,2.17q2,2.16,2,6.6V66.37q0,4.42-2,6.62a6.83,6.83,0,0,1-5.28,2.19A6.63,6.63,0,0,1,140.34,73Q138.32,70.76,138.32,66.37Z"/><path class="cls-3" d="M179.77,10.06l27.79,42.05V9.67q0-4.14,1.77-6.21a6,6,0,0,1,4.8-2.07A6.17,6.17,0,0,1,219,3.46q1.8,2.07,1.8,6.21V65.79q0,9.39-7.78,9.39a10.42,10.42,0,0,1-3.51-.56,8.87,8.87,0,0,1-2.92-1.78A17.14,17.14,0,0,1,204.1,70q-1.17-1.62-2.34-3.33L174.66,25.1V66.9c0,2.73-.64,4.79-1.9,6.19a6.3,6.3,0,0,1-4.87,2.09A6.2,6.2,0,0,1,163,73.06c-1.24-1.41-1.85-3.46-1.85-6.16v-55a15.81,15.81,0,0,1,.77-5.5A7.9,7.9,0,0,1,165,2.78a8.39,8.39,0,0,1,4.62-1.39,7.62,7.62,0,0,1,5.77,2.34,17.6,17.6,0,0,1,2.14,2.78C178.23,7.64,179,8.83,179.77,10.06Z"/><path class="cls-3" d="M295.83,45V58.63a14.29,14.29,0,0,1-.54,4.36,6.86,6.86,0,0,1-2,2.94,18.17,18.17,0,0,1-3.67,2.53,57.67,57.67,0,0,1-12.46,5.11,50.25,50.25,0,0,1-13,1.61,42.59,42.59,0,0,1-15-2.53,31.54,31.54,0,0,1-11.54-7.35,32.41,32.41,0,0,1-7.32-11.68,43.55,43.55,0,0,1-2.56-15.33,44.94,44.94,0,0,1,2.48-15.24,31.48,31.48,0,0,1,7.3-11.73A32.06,32.06,0,0,1,249.25,4a45.06,45.06,0,0,1,15.67-2.56,38.94,38.94,0,0,1,12.76,1.93,28.1,28.1,0,0,1,9,4.84,21.79,21.79,0,0,1,5.21,6.18,12.56,12.56,0,0,1,1.75,5.79,6.17,6.17,0,0,1-2,4.65,6.78,6.78,0,0,1-4.84,1.92,6.51,6.51,0,0,1-3-.73,6.75,6.75,0,0,1-2.41-2,57.8,57.8,0,0,0-4.52-6.33,14.63,14.63,0,0,0-5-3.6,19.08,19.08,0,0,0-8-1.46,22.12,22.12,0,0,0-9,1.73,18.41,18.41,0,0,0-6.74,5,22.58,22.58,0,0,0-4.29,8.06,35.42,35.42,0,0,0-1.48,10.56q0,12.56,5.77,19.32T264.24,64a32.69,32.69,0,0,0,9.42-1.31,47.43,47.43,0,0,0,8.93-3.75V47.34H271.4a12.27,12.27,0,0,1-6.11-1.22A4.4,4.4,0,0,1,263.22,42,5.1,5.1,0,0,1,265,38a6.79,6.79,0,0,1,4.69-1.55h16.41a20.83,20.83,0,0,1,5.11.53,5.77,5.77,0,0,1,3.38,2.39A9.71,9.71,0,0,1,295.83,45Z"/><path class="cls-3" d="M303.7,44.47V10.16q0-4.38,2-6.57a6.64,6.64,0,0,1,5.18-2.2,6.81,6.81,0,0,1,5.33,2.2c1.32,1.46,2,3.65,2,6.57V45.25a32.08,32.08,0,0,0,1.34,10,11.64,11.64,0,0,0,4.75,6.23q3.4,2.21,9.54,2.21,8.46,0,12-4.5t3.5-13.65V10.16q0-4.44,1.95-6.6a6.67,6.67,0,0,1,5.21-2.17,6.91,6.91,0,0,1,5.28,2.17q2,2.16,2,6.6V44.47a50.71,50.71,0,0,1-1.63,14,21.62,21.62,0,0,1-6.16,9.83,23.82,23.82,0,0,1-9.05,5.25,39.39,39.39,0,0,1-12.07,1.66,49.55,49.55,0,0,1-14.16-1.78A22.66,22.66,0,0,1,311,67.9a22.15,22.15,0,0,1-5.5-9.54A48.41,48.41,0,0,1,303.7,44.47Z"/><path class="cls-3" d="M415,65.88l-3.41-8.95h-27l-3.41,9.15a31.71,31.71,0,0,1-3.41,7.22q-1.41,1.88-4.62,1.88a6.79,6.79,0,0,1-4.82-2,6.09,6.09,0,0,1-2.09-4.52,10.22,10.22,0,0,1,.48-3c.33-1,.86-2.48,1.61-4.33L384.6,15c.52-1.33,1.15-2.92,1.88-4.79a24.2,24.2,0,0,1,2.33-4.65,9.57,9.57,0,0,1,3.26-3,10,10,0,0,1,5-1.15,10.15,10.15,0,0,1,5,1.15,9.74,9.74,0,0,1,3.26,2.94,20.57,20.57,0,0,1,2.09,3.87q.85,2.07,2.17,5.53l18.64,46q2.19,5.25,2.19,7.64a6.33,6.33,0,0,1-2.07,4.55,6.8,6.8,0,0,1-5,2.07,6.42,6.42,0,0,1-2.92-.61,6,6,0,0,1-2-1.66,14.37,14.37,0,0,1-1.78-3.21C416,68.26,415.47,67,415,65.88ZM386.4,46.07h21.32L397,16.63Z"/><path class="cls-3" d="M450.22,10.16V62.09h29.3a7.7,7.7,0,0,1,5.38,1.7,5.54,5.54,0,0,1,1.87,4.28,5.4,5.4,0,0,1-1.85,4.26,7.91,7.91,0,0,1-5.4,1.63h-34.9c-3.14,0-3.41-.7-4.79-2.09s-2.06-3.65-2.06-6.77V10.16c0-2.92.65-5.11,2-6.57s1-2.2,3.18-2.2a6.91,6.91,0,0,1,5.28,2.17Q450.23,5.72,450.22,10.16Z"/><path class="cls-3" d="M541.68,52.55a21,21,0,0,1-3.33,11.63,22.17,22.17,0,0,1-9.76,8.08,36.65,36.65,0,0,1-15.23,2.92c-7,0-10.85-1.33-15.42-4A23.13,23.13,0,0,1,490,63.52a17.37,17.37,0,0,1-3-9.32,6.32,6.32,0,0,1,6.48-6.37,5.49,5.49,0,0,1,3.87,1.46c1.05,1-.05,2.41.7,4.33A29.12,29.12,0,0,0,501,59.31a11.91,11.91,0,0,0,4.46,3.77A16.41,16.41,0,0,0,513,64.57q6.42,0,10.44-3a9,9,0,0,0,4-7.48,7.9,7.9,0,0,0-2.16-5.76,14,14,0,0,0-5.6-3.39c-2.29-.77-5.34-1.6-9.17-2.48a67.1,67.1,0,0,1-12.88-4.21c-3.45-1.6-4.19-3.79-6.22-6.57a17,17,0,0,1-3-10.34,17.75,17.75,0,0,1,3.21-10.46c2.14-3.05,3.24-5.4,7.3-7a38,38,0,0,1,14.3-2.46A35.35,35.35,0,0,1,524.53,3a24,24,0,0,1,8,4.33A18.14,18.14,0,0,1,537.11,13a13.12,13.12,0,0,1,1.46,5.79,6.88,6.88,0,0,1-1.82,4.65,5.84,5.84,0,0,1-4.56,2.07,5.23,5.23,0,0,1-3.77-1.25,16.68,16.68,0,0,1-2.8-4.06,18.31,18.31,0,0,0-4.67-6.3q-2.73-2.27-8.76-2.27a15.17,15.17,0,0,0-9,2.46q-3.44,2.46-3.43,5.92a6,6,0,0,0,1.17,3.69,9.78,9.78,0,0,0,3.21,2.68,21.13,21.13,0,0,0,4.14,1.75c1.39.43,3.7,1,6.91,1.85a107.28,107.28,0,0,1,10.93,3.12,33.12,33.12,0,0,1,8.32,4.13,17.06,17.06,0,0,1,5.35,6.16A19.76,19.76,0,0,1,541.68,52.55Z"/><path class="cls-3" d="M693.93,1.39Q705,1.39,713,5.9a29.17,29.17,0,0,1,12,12.8,43.56,43.56,0,0,1,4.09,19.49,47.45,47.45,0,0,1-2.24,15A32.57,32.57,0,0,1,720.17,65a29.33,29.33,0,0,1-11,7.59,39.78,39.78,0,0,1-14.94,2.63,39.38,39.38,0,0,1-15-2.7,29.63,29.63,0,0,1-11-7.62A32.46,32.46,0,0,1,661.5,53a47.64,47.64,0,0,1-2.27-14.94A46.28,46.28,0,0,1,661.59,23a32.64,32.64,0,0,1,6.84-11.68A29.61,29.61,0,0,1,679.33,4,39.35,39.35,0,0,1,693.93,1.39Zm20.54,36.7a33.45,33.45,0,0,0-2.53-13.58,18.82,18.82,0,0,0-7.23-8.68,19.8,19.8,0,0,0-10.78-2.95,19.47,19.47,0,0,0-8,1.63,17.62,17.62,0,0,0-6.33,4.75,22.58,22.58,0,0,0-4.18,8,35.75,35.75,0,0,0-1.54,10.88,36.6,36.6,0,0,0,1.54,11,22.35,22.35,0,0,0,4.33,8.15,18.09,18.09,0,0,0,6.42,4.85,20.35,20.35,0,0,0,18.16-1.17,19.22,19.22,0,0,0,7.39-8.57A33,33,0,0,0,714.47,38.09Z"/><path class="cls-3" d="M754.9,43.45h-5.06V66.37q0,4.53-2,6.67a6.82,6.82,0,0,1-5.21,2.14,6.63,6.63,0,0,1-5.35-2.24q-1.9-2.23-1.9-6.57V11.47c0-3.12.69-5.37,2.09-6.77s3.65-2.09,6.77-2.09h23.5a70.49,70.49,0,0,1,8.33.42,20.89,20.89,0,0,1,6.23,1.67,18.28,18.28,0,0,1,5.93,4,17.74,17.74,0,0,1,3.92,6.11,20.43,20.43,0,0,1,1.34,7.38q0,8-4.5,12.75t-13.65,6.76a26.34,26.34,0,0,1,7.34,6A60.69,60.69,0,0,1,789,56.27a62.76,62.76,0,0,1,4.28,8.13,16.09,16.09,0,0,1,1.53,5,5.06,5.06,0,0,1-.9,2.79,6.26,6.26,0,0,1-2.45,2.19,7.72,7.72,0,0,1-3.61.81A6.94,6.94,0,0,1,783.72,74a10.74,10.74,0,0,1-2.85-2.89c-.8-1.17-1.87-2.89-3.24-5.16l-5.79-9.64a53.57,53.57,0,0,0-5.57-8.08,13.7,13.7,0,0,0-5-3.79A17.19,17.19,0,0,0,754.9,43.45Zm8.28-30H749.84V33.08h12.95a36.3,36.3,0,0,0,8.76-.9A10.24,10.24,0,0,0,777,29.11a8.85,8.85,0,0,0,1.87-6,9,9,0,0,0-5.69-8.61C771.47,13.82,768.14,13.47,763.18,13.47Z"/><path class="cls-3" d="M817.34,10.16V62.09h29.3a7.68,7.68,0,0,1,5.37,1.7,5.55,5.55,0,0,1,1.88,4.28A5.43,5.43,0,0,1,852,72.33a7.92,7.92,0,0,1-5.4,1.63h-34.9Q807,74,805,71.87c-1.38-1.4-2.07-3.65-2.07-6.77V10.16q0-4.38,2-6.57A6.67,6.67,0,0,1,810,1.39a6.91,6.91,0,0,1,5.28,2.17C816.66,5,817.34,7.2,817.34,10.16Z"/><path class="cls-3" d="M869.33,2.61h18.84A51.13,51.13,0,0,1,900.77,4a23.22,23.22,0,0,1,9.54,5.11q11.15,9.54,11.15,29a56.64,56.64,0,0,1-1.12,11.73,34.5,34.5,0,0,1-3.46,9.56,29.63,29.63,0,0,1-6,7.62,24.94,24.94,0,0,1-6.28,4.14,28.22,28.22,0,0,1-7.33,2.19,55.91,55.91,0,0,1-8.83.63H869.63a11.85,11.85,0,0,1-5.94-1.19,5.6,5.6,0,0,1-2.61-3.36,21.61,21.61,0,0,1-.6-5.62V11.47c0-3.12.69-5.37,2.09-6.77S866.22,2.61,869.33,2.61Zm5.6,11.44V62.48h11c2.4,0,4.28-.07,5.65-.2a17.6,17.6,0,0,0,4.23-1,11.58,11.58,0,0,0,3.8-2.19Q906.81,53,906.81,38q0-10.56-3.19-15.81t-7.86-6.7a39,39,0,0,0-11.29-1.43Z"/></g></g></svg>