<svg xmlns="http://www.w3.org/2000/svg" width="21.013" height="26.007" viewBox="0 0 21.013 26.007">
  <g id="filter" transform="translate(0.507 0.5)">
    <g id="Layer_1" data-name="Layer 1" transform="translate(0)">
      <path id="Path_21" data-name="Path 21" d="M20.427,1c.514,0,.72.373.468.83L16.653,9.254l-.935,1.66-1.95,3.4a4.3,4.3,0,0,0-.468,1.793v4.332a2.732,2.732,0,0,1-.662,1.644l-3.594,3.7c-.362.375-.659.241-.659-.282v-9.96a4.307,4.307,0,0,0-.468-1.793L6.293,10.915l-.947-1.66L1.114,1.83C.854,1.373,1.062,1,1.577,1Z" transform="translate(-1.002 -1)" fill="none" stroke="#000" stroke-miterlimit="10" stroke-width="1"/>
    </g>
  </g>
</svg>
